<?xml version="1.0" encoding="UTF-8"?>
<svg width="109px" height="45px" viewBox="0 0 109 45" version="1.1" xmlns="http://www.w3.org/2000/svg" xmlns:xlink="http://www.w3.org/1999/xlink">
  <g id="Artboard" transform="translate(-23.000000, -33.000000)" fill-rule="nonzero" fill="white">
    <path d="M23,77.9 L23,67.2 L62.9,67.2 L67.6,77.9 L23,77.9 Z M112.6,33 L131.7,76.2 L131.7,77.9 L120.8,77.9 L109.8,53.2 L103.6,67.2 L109.8,67.2 L109.8,77.9 L87.9,77.9 L87.9,76.2 L107,33 L112.6,33 Z M23,60.8 L23,50.1 L55.3,50.1 L60,60.8 L23,60.8 Z M88.3,33 L99.3,33 L99.3,34.7 L80.1,77.9 L74.6,77.9 L59.4,43.7 L23,43.7 L23,33 L66.4,33 L77.4,57.7 L88.3,33 Z"
      id="Combined-Shape"></path>
  </g>
</svg>
